<svg xmlns="http://www.w3.org/2000/svg" viewBox="0 0 64 64" id="car-repair-location">
  <g>
    <circle cx="32" cy="57" r="1"></circle>
    <path d="M42.63 45.38a23 23 0 1 0-21.26 0C8.51 46.34 2 49.07 2 53.5 2 60.53 18.31 62 32 62s30-1.47 30-8.5c0-4.43-6.51-7.16-19.37-8.12ZM15 25a17 17 0 1 1 17 17 17.024 17.024 0 0 1-17-17Zm17 35c-17.27 0-28-2.49-28-6.5 0-3.28 7.17-5.55 19.67-6.27l1.94 1.95C19.33 49.53 11 50.56 11 53.5c0 3.33 10.62 4.2 16.95 4.43h.03a1 1 0 0 0 .04-2c-9.57-.34-14.02-1.72-14.91-2.43.88-.7 5.19-2.04 14.41-2.41l2.51 2.51a2.921 2.921 0 0 0 1.95.73 3.075 3.075 0 0 0 2.04-.77l2.46-2.47c9.22.37 13.53 1.71 14.41 2.41-.89.71-5.33 2.09-14.91 2.43a1 1 0 0 0 .04 2h.03C42.38 57.7 53 56.83 53 53.5c0-2.94-8.33-3.97-14.61-4.32l1.94-1.95C52.83 47.95 60 50.22 60 53.5c0 4.01-10.73 6.5-28 6.5Z"></path>
    <path d="M36.52 26c1.4.11 4.81.14 6.7-1.75a7.489 7.489 0 0 0 1.85-7.56 1.006 1.006 0 0 0-1.66-.41l-2.64 2.65-2.36-.48-.47-2.35 2.64-2.64a1.016 1.016 0 0 0-.41-1.67 7.52 7.52 0 0 0-7.56 1.86c-1.89 1.89-1.85 5.29-1.75 6.69l-4.5 4.51a18.471 18.471 0 0 1-4.8 3.46 4.962 4.962 0 1 0 7 7 18.457 18.457 0 0 1 3.46-4.81Zm-10.98 6.74a1 1 0 0 1-1.41 0 1.008 1.008 0 0 1 0-1.42 1 1 0 0 1 1.41 0 1.008 1.008 0 0 1 0 1.42Z"></path>
  </g>
</svg>
